#!OML:ASF F:\VICON\USERDATA\INSTALL\rory3\rory3.ASF
:FULLY-SPECIFIED
:DEGREES
304
root -0.728629 18.7152 -14.1587 -164.076 -16.7732 -175.918
lowerback -6.06639 -1.01514 1.88184
upperback -5.44287 -1.83753 2.603
thorax -2.1824 -1.12056 1.5592
lowerneck -10.9135 -1.41169 -1.71172
upperneck 31.8888 -5.53216 3.132
head 12.4951 -3.25128 0.515494
rclavicle 3.31598e-014 2.78299e-015
rhumerus 36.6123 25.845 -68.3822
rradius 88.549
rwrist -27.3724
rhand 0.373257 18.3722
rfingers 7.12502
rthumb 25.9478 -9.87667
lclavicle 3.31598e-014 2.78299e-015
lhumerus 78.6213 -40.8484 26.6506
lradius 101.064
lwrist -11.3651
lhand -29.8568 36.8287
lfingers 7.12502
lthumb -3.17915 66.7848
rfemur -54.4021 6.96947 19.2449
rtibia 41.7018
rfoot -40.4211 -25.209
rtoes 62.5066
lfemur -32.7912 -7.1897 -18.3463
ltibia 35.6763
lfoot -11.963 18.7385
ltoes -11.9064
305
root -0.717459 18.6647 -14.2827 -164.577 -16.545 -176.18
lowerback -5.34787 -1.07829 1.5125
upperback -5.18603 -1.84362 2.55653
thorax -2.30555 -1.09191 1.73106
lowerneck -10.5582 -1.41478 -1.64398
upperneck 31.5297 -5.46606 3.03224
head 12.2649 -3.22469 0.488286
rclavicle -2.68856e-014 6.36111e-015
rhumerus 35.6786 27.0584 -68.9275
rradius 90.0551
rwrist -24.9974
rhand -3.97726 18.0345
rfingers 7.12502
rthumb 21.7758 -10.7606
lclavicle -2.68856e-014 6.36111e-015
lhumerus 78.7065 -41.9285 26.2718
lradius 101.482
lwrist -14.1828
lhand -31.8557 37.638
lfingers 7.12502
lthumb -5.10941 67.5564
rfemur -54.8672 7.3266 18.3444
rtibia 41.5395
rfoot -39.7008 -25.9887
rtoes 62.1565
lfemur -32.4241 -7.49017 -18.8714
ltibia 35.5806
lfoot -9.29114 19.2369
ltoes -21.0959
306
root -0.697212 18.588 -14.3837 -164.843 -16.0467 -176.299
lowerback -5.20059 -1.16617 1.07882
upperback -4.81579 -1.91502 2.72819
thorax -1.98342 -1.09744 2.14274
lowerneck -9.48875 -1.28275 -2.03385
upperneck 30.542 -5.07768 3.12279
head 11.6443 -3.0849 0.676562
rclavicle -5.43303e-014 5.96354e-015
rhumerus 35.4091 28.5195 -68.9398
rradius 91.5561
rwrist -23.9253
rhand -7.0875 19.4996
rfingers 7.12502
rthumb 18.7867 -9.61322
lclavicle -5.43303e-014 5.96354e-015
lhumerus 78.2088 -42.6983 26.3969
lradius 101.791
lwrist -17.3319
lhand -33.1346 38.843
lfingers 7.12502
lthumb -6.3442 68.728
rfemur -55.8909 8.37844 17.2177
rtibia 41.4452
rfoot -42.2488 -22.8725
rtoes 62.6015
lfemur -32.3838 -7.76776 -19.2009
ltibia 35.4212
lfoot -8.16167 19.1405
ltoes -22.3648
307
root -0.678482 18.4919 -14.4567 -165.057 -15.2804 -175.839
lowerback -4.48293 -0.887479 1.44885
upperback -4.50764 -1.50871 2.80387
thorax -2.08347 -0.889174 2.0377
lowerneck -9.64237 -1.34959 -2.22795
upperneck 30.0769 -5.04769 3.31546
head 11.5017 -3.03119 0.792559
rclavicle 8.19987e-015 -1.23246e-014
rhumerus 34.3933 28.8977 -70.1688
rradius 91.2312
rwrist -22.6458
rhand -9.62851 21.3366
rfingers 7.12502
rthumb 16.3414 -7.99494
lclavicle 8.19987e-015 -1.23246e-014
lhumerus 78.4065 -43.6192 26.113
lradius 101.996
lwrist -20.5931
lhand -33.7286 40.3703
lfingers 7.12502
lthumb -6.91758 70.2372
rfemur -57.3514 9.96043 16.404
rtibia 41.405
rfoot -42.6255 -23.252
rtoes 62.2638
lfemur -32.639 -7.85249 -18.8835
ltibia 35.2219
lfoot -8.38772 19.0687
ltoes -19.5929
308
root -0.69101 18.4095 -14.5688 -165.654 -15.339 -176.025
lowerback -3.73674 -0.80457 1.72761
upperback -4.12099 -1.33812 2.52728
thorax -2.11712 -0.790555 1.60878
lowerneck -9.70855 -1.60538 -2.00537
upperneck 29.8903 -5.40484 3.27316
head 11.4488 -3.15612 0.695573
rclavicle -1.75179e-014 2.20651e-014
rhumerus 32.9444 29.2668 -71.21
rradius 91.3228
rwrist -21.2274
rhand -13.8591 22.4925
rfingers 7.12502
rthumb 12.265 -7.12781
lclavicle -1.75179e-014 2.20651e-014
lhumerus 78.7977 -45.1909 25.8245
lradius 101.784
lwrist -23.5681
lhand -34.7814 40.6475
lfingers 7.12502
lthumb -7.93375 70.4786
rfemur -57.7267 9.30479 16.0481
rtibia 41.3697
rfoot -43.8233 -21.0794
rtoes 62.8006
lfemur -32.0668 -7.98536 -19.5367
ltibia 35.1268
lfoot -7.07572 18.8277
ltoes -21.5936
309
root -0.673343 18.2974 -14.6757 -165.765 -14.7518 -176.892
lowerback -2.96074 -0.866533 0.823446
upperback -3.99598 -1.35164 2.29122
thorax -2.40751 -0.76001 1.88589
lowerneck -9.6259 -1.48245 -2.17565
upperneck 29.8372 -5.2329 3.41235
head 11.4134 -3.08439 0.799812
rclavicle -1.36664e-015 1.88845e-014
rhumerus 31.712 30.8159 -71.9091
rradius 91.598
rwrist -19.4807
rhand -17.1883 24.8805
rfingers 7.12502
rthumb 9.05366 -4.90516
lclavicle -1.36664e-015 1.88845e-014
lhumerus 77.9778 -46.4514 26.0076
lradius 101.943
lwrist -26.5567
lhand -35.5538 40.9605
lfingers 7.12502
lthumb -8.67926 70.7621
rfemur -58.8998 10.9008 13.5493
rtibia 41.3571
rfoot -46.5359 -17.9934
rtoes 63.0332
lfemur -31.8764 -7.90225 -20.831
ltibia 35.1182
lfoot -6.00362 18.6438
ltoes -23.3832
310
root -0.66422 18.1727 -14.7523 -166.137 -14.5606 -176.607
lowerback -2.07789 -0.936773 0.969695
upperback -3.79841 -1.41071 2.60904
thorax -2.69354 -0.782355 2.14746
lowerneck -9.3784 -1.44662 -2.51533
upperneck 29.2726 -4.96487 3.33357
head 11.1397 -2.98797 0.876864
rclavicle -2.87741e-014 -2.22639e-014
rhumerus 31.3163 32.7784 -71.3474
rradius 92.0446
rwrist -17.9063
rhand -16.0447 38.0754
rfingers 7.12502
rthumb 10.157 8.34061
lclavicle -2.87741e-014 -2.22639e-014
lhumerus 76.8445 -47.2543 26.6615
lradius 102.347
lwrist -29.811
lhand -35.3775 41.6105
lfingers 7.12502
lthumb -8.50907 71.419
rfemur -60.1404 12.7904 11.8579
rtibia 41.3609
rfoot -43.3142 -25.7397
rtoes 60.6718
lfemur -31.9184 -7.61475 -20.9553
ltibia 35.1798
lfoot -4.27502 18.5946
ltoes -23.2764
311
root -0.64489 18.04 -14.8875 -166.357 -13.8937 -176.945
lowerback -1.48565 -0.71363 0.466668
upperback -4.02817 -1.09753 2.51063
thorax -3.26733 -0.610277 2.34349
lowerneck -8.24988 -1.48302 -2.81391
upperneck 28.8769 -5.02853 3.40384
head 10.7741 -3.07967 0.966202
rclavicle -5.71506e-015 1.33186e-014
rhumerus 30.1573 34.6306 -70.6916
rradius 92.7056
rwrist -16.6395
rhand -15.0843 48.0606
rfingers 7.12502
rthumb 11.0834 18.3732
lclavicle -5.71506e-015 1.33186e-014
lhumerus 76.0279 -49.2281 26.7764
lradius 102.658
lwrist -32.8107
lhand -35.1775 42.1042
lfingers 7.12502
lthumb -8.31605 71.9206
rfemur -61.3279 14.9397 9.53271
rtibia 41.4277
rfoot -45.5888 -23.1357
rtoes 60.8644
lfemur -31.7367 -7.13645 -21.7782
ltibia 35.3566
lfoot -3.51099 18.8007
ltoes -17.0059
312
root -0.650909 17.8923 -14.9892 -166.587 -13.4496 -177.352
lowerback -0.864024 -0.252243 0.201651
upperback -2.97221 -0.415136 2.24447
thorax -2.55028 -0.237072 2.20094
lowerneck -11.9743 -2.07893 -2.57715
upperneck 29.5491 -5.62493 3.43734
head 11.8082 -3.14446 0.802413
rclavicle 9.98893e-015 1.8487e-014
rhumerus 31.2929 34.2953 -68.6914
rradius 92.3328
rwrist -14.942
rhand -13.7141 56.5707
rfingers 7.12502
rthumb 12.4048 26.9588
lclavicle 9.98893e-015 1.8487e-014
lhumerus 78.4029 -48.8549 24.4991
lradius 102.957
lwrist -34.8407
lhand -35.589 42.1666
lfingers 7.12502
lthumb -8.71317 71.9667
rfemur -62.0977 14.5314 8.87928
rtibia 41.326
rfoot -45.3425 -22.3958
rtoes 61.0312
lfemur -31.6775 -6.90442 -22.786
ltibia 35.9359
lfoot -4.96546 18.8901
ltoes -5.12563
